<?xml version="1.0" standalone="no"?>
<svg xmlns:xlink="http://www.w3.org/1999/xlink" id="wave" style="transform:rotate(180deg); transition: 0.3s" viewBox="0 0 1440 100" version="1.1" xmlns="http://www.w3.org/2000/svg"><defs><linearGradient id="sw-gradient-0" x1="0" x2="0" y1="1" y2="0"><stop stop-color="rgba(245, 245, 220, 1)" offset="0%"/><stop stop-color="rgba(245, 245, 220, 1)" offset="100%"/></linearGradient></defs><path style="transform:translate(0, 0px); opacity:1" fill="url(#sw-gradient-0)" d="M0,50L26.7,55C53.3,60,107,70,160,61.7C213.3,53,267,27,320,21.7C373.3,17,427,33,480,35C533.3,37,587,23,640,16.7C693.3,10,747,10,800,8.3C853.3,7,907,3,960,10C1013.3,17,1067,33,1120,40C1173.3,47,1227,43,1280,36.7C1333.3,30,1387,20,1440,18.3C1493.3,17,1547,23,1600,21.7C1653.3,20,1707,10,1760,5C1813.3,0,1867,0,1920,6.7C1973.3,13,2027,27,2080,38.3C2133.3,50,2187,60,2240,53.3C2293.3,47,2347,23,2400,13.3C2453.3,3,2507,7,2560,6.7C2613.3,7,2667,3,2720,13.3C2773.3,23,2827,47,2880,51.7C2933.3,57,2987,43,3040,41.7C3093.3,40,3147,50,3200,55C3253.3,60,3307,60,3360,58.3C3413.3,57,3467,53,3520,48.3C3573.3,43,3627,37,3680,38.3C3733.3,40,3787,50,3813,55L3840,60L3840,100L3813.3,100C3786.7,100,3733,100,3680,100C3626.7,100,3573,100,3520,100C3466.7,100,3413,100,3360,100C3306.7,100,3253,100,3200,100C3146.7,100,3093,100,3040,100C2986.7,100,2933,100,2880,100C2826.7,100,2773,100,2720,100C2666.7,100,2613,100,2560,100C2506.7,100,2453,100,2400,100C2346.7,100,2293,100,2240,100C2186.7,100,2133,100,2080,100C2026.7,100,1973,100,1920,100C1866.7,100,1813,100,1760,100C1706.7,100,1653,100,1600,100C1546.7,100,1493,100,1440,100C1386.7,100,1333,100,1280,100C1226.7,100,1173,100,1120,100C1066.7,100,1013,100,960,100C906.7,100,853,100,800,100C746.7,100,693,100,640,100C586.7,100,533,100,480,100C426.7,100,373,100,320,100C266.7,100,213,100,160,100C106.7,100,53,100,27,100L0,100Z"/></svg>